mtllib grass.mtl
usemtl default

// 用八個點定義六個面 (正負 xyz 面)
v 0 0 0
v 1 0 0
v 0 1 0
v 1 1 0
v 0 0 1
v 1 0 1
v 0 1 1
v 1 1 1

// 正負 xyz 面要六種法向量
vn  1  0  0
vn -1  0  0
vn  0  1  0
vn  0 -1  0
vn  0  0  1
vn  0  0 -1

// 定義八個 vt 座標取出對應的材質貼圖
vt 0    0
vt 0.33 0
vt 0.66 0
vt 1    0
vt 0    1
vt 0.33 1
vt 0.66 1
vt 1    1

// 正 y 面 (草 右邊貼圖)
f 7/3/3 8/4/3 3/7/3
f 8/4/3 4/8/3 3/7/3

// 負 y 面 (土 左邊貼圖)
f 5/1/4 1/5/4 6/2/4
f 1/5/4 2/6/4 6/2/4

// 正 z 面 (混 中間貼圖)
f 5/6/5 6/2/5 7/7/5
f 6/2/5 8/3/5 7/7/5

// 負 z 面 (混 中間貼圖)
f 1/6/6 3/7/6 2/2/6
f 3/7/6 4/3/6 2/2/6

// 正 x 面 (混 中間貼圖)
f 6/6/1 2/2/1 8/7/1
f 2/2/1 4/3/1 8/7/1

// 負 x 面 (混 中間貼圖)
f 1/6/2 5/2/2 3/7/2
f 5/2/2 7/3/2 3/7/2

